<svg xmlns="http://www.w3.org/2000/svg"
     viewBox="0 0 933 681"
     width="933"
     height="681">
    <defs>
        <linearGradient
                id="a"
                x1="20%"
                x2="50%"
                y1="20%"
                y2="50%">
            <stop offset="0"
                  stop-color="#fff"/>
            <stop offset="1"
                  stop-color="#fff"
                  stop-opacity="0"/>
        </linearGradient>
        <mask id="b">
            <rect fill="url(#a)"
                  width="100%"
                  height="100%"/>
        </mask>
    </defs>
    <g fill="none"
       fill-rule="evenodd"
       stroke="#ececec"
       mask="url(#b)">
        <path stroke-width=".25"
              d="M356.598.34l319.81 680.198M49.513.34l319.81 680.198M661.708.7l319.65 679.84M818.275.7l319.65 679.84"/>
        <path stroke-width=".5"
              d="M197.88.34l319.81 680.198"/>
        <path stroke-width=".75"
              d="M-9.022 207.96L213.18 680.557"/>
        <path stroke-width=".25"
              d="M505.365.34l319.81 680.198m-459.475.002L685.668.026M669.563 680.54L976.048 28.686M826.13 680.54l306.486-651.855M211.86 680.538L531.67.34M-98.64 680.538L221.173.34m292.213 680.2L833.036.7M327.953.34l319.812 680.198M23.41.34l319.81 680.198"/>
        <path stroke-width=".5"
              d="M635.287.024L955.255 680.54"/>
        <path stroke-width=".25"
              d="M792.172.7l319.65 679.84M171.772.338l319.82 680.203M-9.464 262.524l196.55 418.038M486.542.34l319.81 680.198m-452.622.002L673.38.7m-16.67 679.84L963.195 28.686M813.278 680.54l306.485-651.855M197.02 680.538L516.833.34M-111.49 680.538L208.32.34m292.214 680.2L820.5.026M317.498.34l319.81 680.198M12.955.34l319.81 680.198M624.98.338L944.8 680.54M781.72.7l319.648 679.84M159.338.34l319.81 680.198M-8.59 286.616l185.224 393.947"/>
        <path stroke-width=".75"
              d="M468.81.34l319.81 680.198"/>
        <path stroke-width=".25"
              d="M330.564 681L650.384.797M21.638 680.54L341.458.34"/>
        <path stroke-width=".75"
              d="M633.667 680.54L940.152 28.686"/>
        <path stroke-width=".25"
              d="M790.235 680.54L1096.72 28.686M170.008 680.538L489.968.028m-498.553 412.7L185.32.318M477.49 680.54L797.14.7"/>
        <path stroke-width=".5"
              d="M306.17 680.54L625.99.34"/>
        <path stroke-width=".25"
              d="M-3.09 680.538L316.723.34m303.462 680.2L939.115.7M776.753 680.54l306.485-651.855M156.526 680.538L476.484.028"/>
        <path stroke-width=".75"
              d="M-148.016 680.538L171.794.34"/>
        <path stroke-width=".25"
              d="M465.332 680.54L785.302.026"/>
        <path stroke-width=".5"
              d="M-12.208 28.685L294.277 680.54"/>
        <path stroke-width=".75"
              d="M586.486.338l319.82 680.203"/>
        <path stroke-width=".25"
              d="M743.225.7l319.65 679.84M122.825.338l319.82 680.203"/>
        <path stroke-width=".5"
              d="M-40.41 302.88l178.565 377.69"/>
        <path stroke-width=".25"
              d="M430.315.34l319.81 680.198m-457.887.002L612.058.34m-629.152 680.2L301.354.34m293.58 680.2L914.584.7m-163.08 679.84L1057.99 28.686M131.277 680.538L451.087.34m-624.353 680.198L146.544.34m292.216 680.2L758.407.7M266.344 680.538L586.304.028M-42.89 680.538L276.923.34"/>
        <path stroke-width=".5"
              d="M569.135 680.54L889.103.026"/>
        <path stroke-width=".25"
              d="M725.703 680.54L1032.19 28.686M105.477 680.538L425.287.34m-624.357 680.2L120.75.338M412.96 680.54L732.61.7M246.23 680.538L566.04.34"/>
        <path stroke-width=".5"
              d="M-63.102 680.538L256.708.34"/>
        <path stroke-width=".25"
              d="M548.923 680.54L868.573.7M705.49 680.54l306.486-651.855"/>
        <path stroke-width=".75"
              d="M85.265 680.538L405.075.34"/>
        <path stroke-width=".25"
              d="M-8.13 231.568L100.604.3m292.143 680.24L712.397.7"/>
        <path stroke-width=".5"
              d="M307.666.34l319.81 680.198"/>
        <path stroke-width=".25"
              d="M346.166.34l319.81 680.198M373.16.34L692.8 680.175"/>
        <path stroke-width=".75"
              d="M-61.585 544.726H944.17M-61.585 457.702H944.17M-61.585 221.01H944.17M-61.585 65.104H944.17"/>
        <path stroke-width=".25"
              d="M-61.585 109.082H944.17M-61.585 91.574H944.17"/>
        <path stroke-width=".5"
              d="M-61.585 305.678H944.17"/>
        <path stroke-width=".25"
              d="M-61.585 350.444H944.17"/>
        <path stroke-width=".5"
              d="M-61.585 377.536H944.17"/>
        <path stroke-width=".25"
              d="M-61.585 497.637H944.17"/>
        <path stroke-width=".5"
              d="M-61.585 621.187H944.17"/>
    </g>
</svg>